<svg width="75" height="89" viewBox="0 0 75 89" fill="none" xmlns="http://www.w3.org/2000/svg">
<path d="M72.8908 0C72.8725 0 72.8542 0.000225657 72.8357 0.000902628H10.0492C9.05221 0.000902628 8.24391 0.809206 8.24391 1.80616V6.3554L1.14925 10.8685C0.631144 11.1921 0.311838 11.7561 0.300781 12.3669V87.1947C0.300781 88.1917 1.10908 89 2.10604 89H62.0044C62.639 88.9898 63.2216 88.6471 63.5389 88.0974L68.1603 80.3528H72.8901C73.8871 80.3528 74.6954 79.5445 74.6954 78.5476V1.80616C74.6958 0.80898 73.888 0.000451314 72.8908 0ZM3.91129 85.4075V14.1902H60.1992L60.2172 85.4075H3.91129ZM59.4229 5.94019C58.5426 6.33577 58.1292 7.35348 58.4842 8.25092L59.4229 10.5797H8.31612L11.024 8.86471C11.5405 8.53322 11.8533 7.96208 11.8544 7.34829V3.61141H64.5498L59.4229 5.94019ZM71.0307 76.8145L67.0772 76.7423C66.4361 76.7462 65.8451 77.0898 65.5247 77.6449L63.8097 80.6056V12.385C63.8101 12.1564 63.7673 11.9296 63.6833 11.717L62.4196 8.53976L71.0307 4.6043V76.8145Z" fill="#AF903F" fill-opacity="0.5"/>
<path d="M47.7431 20.5805H40.9193C39.9223 20.5805 39.114 21.3888 39.114 22.3858C39.114 23.3827 39.9223 24.191 40.9193 24.191H42.5259V36.6654C42.766 42.4431 38.2768 47.3214 32.4991 47.5615C26.7214 47.8016 21.8431 43.3123 21.603 37.5346C21.5911 37.2449 21.5911 36.9549 21.603 36.6652V24.1908H23.2097C24.2067 24.1908 25.015 23.3825 25.015 22.3856C25.015 21.3886 24.2067 20.5803 23.2097 20.5803H16.3858C15.3889 20.5803 14.5806 21.3886 14.5806 22.3856C14.5806 23.3825 15.3889 24.1908 16.3858 24.1908H17.9925V36.6652C17.7141 44.4368 23.7887 50.9628 31.5604 51.2413C39.332 51.5197 45.858 45.445 46.1364 37.6734C46.1484 37.3374 46.1484 37.0012 46.1364 36.6652V24.1908H47.7431C48.7401 24.1908 49.5484 23.3825 49.5484 22.3856C49.5484 21.3886 48.7401 20.5805 47.7431 20.5805Z" fill="#AF903F" fill-opacity="0.5"/>
</svg>
