<svg width="54" height="54" viewBox="0 0 54 54" fill="none" xmlns="http://www.w3.org/2000/svg">
<g clip-path="url(#clip0)">
<path d="M10.1431 39.5574C10.1431 39.5574 8.43388 42.4106 6.77163 46.8603C5.29155 50.8217 5.81935 54.4901 9.40683 53.9472C12.9323 53.4138 8.0526 49.7905 9.22651 46.8603C10.9339 42.5871 13.2685 40.7013 13.5296 40.7388C18.6723 41.5409 29.2469 42.1401 36.1457 35.3218C45.5464 26.0259 39.5642 12.0361 49.2842 5.51835C33.4749 -4.73543 14.9947 0.604654 8.139 10.9035C1.59514 20.7253 5.99215 31.9314 8.60105 36.924C8.60105 36.924 21.191 17.055 27.3874 15.2406C20.019 22.3932 10.1431 39.5574 10.1431 39.5574Z" fill="#AF903F"/>
</g>
<defs>
<clipPath id="clip0">
<rect width="54" height="54" fill="white" transform="matrix(-1 0 0 1 54 0)"/>
</clipPath>
</defs>
</svg>
