<svg width="20" height="20" viewBox="0 0 20 20" fill="none" xmlns="http://www.w3.org/2000/svg">
<path d="M17.953 0C17.9489 0 17.9448 5.07094e-05 17.9406 0.000202838H3.83127C3.60724 0.000202838 3.4256 0.181844 3.4256 0.405878V1.42818L1.83129 2.44237C1.71486 2.51509 1.64311 2.64181 1.64062 2.77908V19.5943C1.64062 19.8184 1.82227 20 2.0463 20H15.5066C15.6492 19.9977 15.7801 19.9207 15.8514 19.7972L16.89 18.0568H17.9528C18.1769 18.0568 18.3585 17.8752 18.3585 17.6511V0.405878C18.3586 0.181793 18.1771 0.000101419 17.953 0ZM2.45198 19.1927V3.18881H15.1009L15.105 19.1927H2.45198ZM14.9265 1.33487C14.7287 1.42377 14.6358 1.65247 14.7155 1.85414L14.9265 2.37746H3.44182L4.05034 1.99207C4.16641 1.91758 4.23669 1.78923 4.23695 1.6513V0.811554H16.0786L14.9265 1.33487ZM17.535 17.2617L16.6466 17.2455C16.5025 17.2463 16.3697 17.3236 16.2977 17.4483L15.9123 18.1136V2.78314C15.9124 2.73177 15.9028 2.6808 15.8839 2.63304L15.5999 1.91905L17.535 1.03468V17.2617Z" fill="white"/>
<path d="M12.3019 4.62481H10.7684C10.5444 4.62481 10.3627 4.80645 10.3627 5.03048C10.3627 5.25452 10.5444 5.43616 10.7684 5.43616H11.1295V8.23938C11.1834 9.53774 10.1746 10.634 8.87624 10.6879C7.57788 10.7419 6.48164 9.73308 6.42769 8.43471C6.425 8.3696 6.425 8.30444 6.42769 8.23933V5.43611H6.78874C7.01277 5.43611 7.19441 5.25447 7.19441 5.03043C7.19441 4.8064 7.01277 4.62476 6.78874 4.62476H5.25528C5.03125 4.62476 4.84961 4.8064 4.84961 5.03043C4.84961 5.25447 5.03125 5.43611 5.25528 5.43611H5.61634V8.23933C5.55376 9.98576 6.91886 11.4523 8.66529 11.5149C10.4117 11.5774 11.8782 10.2123 11.9408 8.4659C11.9435 8.39039 11.9435 8.31483 11.9408 8.23933V5.43611H12.3019C12.5259 5.43611 12.7075 5.25447 12.7075 5.03043C12.7075 4.8064 12.5259 4.62481 12.3019 4.62481Z" fill="white"/>
</svg>
