<svg width="45" height="30" viewBox="0 0 45 30" fill="none" xmlns="http://www.w3.org/2000/svg">
<path d="M11.2334 20.65C9.20007 20.65 7.3834 20.2 5.7834 19.3C4.1834 18.4 2.9334 17.1667 2.0334 15.6C1.1334 14 0.683398 12.2167 0.683398 10.25C0.683398 8.28333 1.1334 6.53333 2.0334 5C2.9334 3.43333 4.1834 2.21667 5.7834 1.35C7.3834 0.483332 9.20007 0.0499991 11.2334 0.0499991C13.2667 0.0499991 15.0667 0.499999 16.6334 1.4C18.2001 2.26667 19.4167 3.48333 20.2834 5.05C21.1834 6.61667 21.6334 8.38333 21.6334 10.35C21.6334 12.3167 21.1834 14.0833 20.2834 15.65C19.4167 17.2167 18.1834 18.45 16.5834 19.35C15.0167 20.2167 13.2334 20.65 11.2334 20.65ZM11.7334 19.7C13.4334 19.7 14.7167 18.9333 15.5834 17.4C16.4501 15.8667 16.8834 13.7333 16.8834 11C16.8834 7.66667 16.3001 5.16667 15.1334 3.5C13.9667 1.83333 12.5167 0.999999 10.7834 0.999999C9.0834 0.999999 7.75007 1.8 6.7834 3.4C5.85007 4.96667 5.3834 7.08333 5.3834 9.75C5.3834 12.6833 5.96673 15.0833 7.1334 16.95C8.30007 18.7833 9.8334 19.7 11.7334 19.7ZM43.9615 17.65C44.0949 17.65 44.1615 17.9333 44.1615 18.5C44.1615 18.8333 44.1282 19.1667 44.0615 19.5C43.9949 19.8 43.9282 19.95 43.8615 19.95L42.6615 19.9C41.5949 19.8333 40.7949 19.8 40.2615 19.8V27.05C40.2615 27.3833 40.1282 27.6167 39.8615 27.75L36.5615 29.4C36.3615 29.4667 36.2615 29.5 36.2615 29.5C36.1615 29.5 36.1115 29.3667 36.1115 29.1V19.65C34.0782 19.6167 30.2615 19.6 24.6615 19.6C24.4949 19.6 24.3615 19.5333 24.2615 19.4C24.1615 19.2667 24.1782 19.1333 24.3115 19L39.5115 0.199999C39.5782 0.133332 39.6782 0.0999984 39.8115 0.0999984C39.9115 0.0999984 40.0115 0.133332 40.1115 0.199999C40.2115 0.233333 40.2615 0.299999 40.2615 0.399999V17.8L43.9615 17.65ZM27.5115 17.95C31.6449 17.95 34.5115 17.9333 36.1115 17.9V6.9L27.2615 17.6C27.0615 17.8333 27.1449 17.95 27.5115 17.95Z" fill="#826B2F"/>
</svg>
