<svg width="43" height="22" viewBox="0 0 43 22" fill="none" xmlns="http://www.w3.org/2000/svg">
<path d="M11.5273 21.65C9.49401 21.65 7.67734 21.2 6.07734 20.3C4.47734 19.4 3.22734 18.1667 2.32734 16.6C1.42734 15 0.977344 13.2167 0.977344 11.25C0.977344 9.28333 1.42734 7.53333 2.32734 6C3.22734 4.43333 4.47734 3.21667 6.07734 2.35C7.67734 1.48333 9.49401 1.05 11.5273 1.05C13.5607 1.05 15.3607 1.5 16.9273 2.4C18.494 3.26667 19.7107 4.48333 20.5773 6.05C21.4773 7.61667 21.9273 9.38333 21.9273 11.35C21.9273 13.3167 21.4773 15.0833 20.5773 16.65C19.7107 18.2167 18.4773 19.45 16.8773 20.35C15.3107 21.2167 13.5273 21.65 11.5273 21.65ZM12.0273 20.7C13.7273 20.7 15.0107 19.9333 15.8773 18.4C16.744 16.8667 17.1773 14.7333 17.1773 12C17.1773 8.66667 16.594 6.16667 15.4273 4.5C14.2607 2.83333 12.8107 2 11.0773 2C9.37734 2 8.04401 2.8 7.07734 4.4C6.14401 5.96667 5.67734 8.08333 5.67734 10.75C5.67734 13.6833 6.26068 16.0833 7.42734 17.95C8.59401 19.7833 10.1273 20.7 12.0273 20.7ZM25.2055 19.85C28.1388 17.25 30.3055 15.25 31.7055 13.85C33.1055 12.45 34.1055 11.2333 34.7055 10.2C35.3388 9.16667 35.6555 8.11667 35.6555 7.05C35.6555 5.75 35.3055 4.66667 34.6055 3.8C33.9055 2.9 32.9555 2.45 31.7555 2.45C30.4888 2.45 29.4221 3 28.5555 4.1C27.7221 5.16667 26.9555 6.78333 26.2555 8.95C26.2555 8.98333 26.1888 9 26.0555 9C25.7555 9 25.6221 8.95 25.6555 8.85L27.7555 0.599999C27.7555 0.533332 27.8221 0.499999 27.9555 0.499999C28.0555 0.499999 28.1388 0.533332 28.2055 0.599999C28.3055 0.633333 28.3388 0.666666 28.3055 0.699999C28.2721 0.866666 28.2555 1.06667 28.2555 1.3C28.2555 1.83333 28.5055 2.1 29.0055 2.1C29.3055 2.1 29.8055 1.98333 30.5055 1.75C31.9721 1.28333 33.2555 1.05 34.3555 1.05C36.1555 1.05 37.5555 1.5 38.5555 2.4C39.5888 3.26667 40.1055 4.41667 40.1055 5.85C40.1055 7.05 39.7388 8.2 39.0055 9.3C38.2721 10.4 37.3721 11.4167 36.3055 12.35C35.2721 13.25 33.8555 14.3833 32.0555 15.75C31.6555 16.05 31.3055 16.3167 31.0055 16.55C30.7055 16.7833 30.4388 16.9833 30.2055 17.15C30.0721 17.25 30.0221 17.3333 30.0555 17.4C30.1221 17.4667 30.2388 17.5 30.4055 17.5C33.4388 17.5 35.6388 17.45 37.0055 17.35C38.3721 17.25 39.4221 17.0167 40.1555 16.65C40.8888 16.2833 41.3721 15.65 41.6055 14.75C41.6055 14.6833 41.6888 14.65 41.8555 14.65C42.0888 14.65 42.2055 14.7 42.2055 14.8L41.2555 20.45C41.2555 20.5833 41.2055 20.7167 41.1055 20.85C41.0388 20.95 40.9388 21 40.8055 21H25.5055C25.3388 21 25.2055 20.85 25.1055 20.55C25.0388 20.2167 25.0721 19.9833 25.2055 19.85Z" fill="#826B2F"/>
</svg>
