<svg width="38" height="21" viewBox="0 0 38 21" fill="none" xmlns="http://www.w3.org/2000/svg">
<path d="M11.2852 20.65C9.25182 20.65 7.43516 20.2 5.83516 19.3C4.23516 18.4 2.98516 17.1667 2.08516 15.6C1.18516 14 0.735156 12.2167 0.735156 10.25C0.735156 8.28333 1.18516 6.53333 2.08516 5C2.98516 3.43333 4.23516 2.21667 5.83516 1.35C7.43516 0.483332 9.25182 0.0499991 11.2852 0.0499991C13.3185 0.0499991 15.1185 0.499999 16.6852 1.4C18.2518 2.26667 19.4685 3.48333 20.3352 5.05C21.2352 6.61667 21.6852 8.38333 21.6852 10.35C21.6852 12.3167 21.2352 14.0833 20.3352 15.65C19.4685 17.2167 18.2352 18.45 16.6352 19.35C15.0685 20.2167 13.2852 20.65 11.2852 20.65ZM11.7852 19.7C13.4852 19.7 14.7685 18.9333 15.6352 17.4C16.5018 15.8667 16.9352 13.7333 16.9352 11C16.9352 7.66667 16.3518 5.16667 15.1852 3.5C14.0185 1.83333 12.5685 0.999999 10.8352 0.999999C9.13516 0.999999 7.80182 1.8 6.83516 3.4C5.90182 4.96667 5.43516 7.08333 5.43516 9.75C5.43516 12.6833 6.01849 15.0833 7.18516 16.95C8.35182 18.7833 9.88516 19.7 11.7852 19.7ZM29.3633 4.75C29.3633 3.71667 29.2633 2.96667 29.0633 2.5C28.8966 2.03333 28.5466 1.71667 28.0133 1.55C27.4799 1.38333 26.5966 1.3 25.3633 1.3C25.2966 1.3 25.2633 1.2 25.2633 0.999999C25.2633 0.799999 25.2966 0.7 25.3633 0.7C26.4299 0.7 27.2633 0.716666 27.8633 0.749999L31.4133 0.8L34.9133 0.749999C35.5466 0.716666 36.3966 0.7 37.4633 0.7C37.5633 0.7 37.6133 0.799999 37.6133 0.999999C37.6133 1.2 37.5633 1.3 37.4633 1.3C36.2966 1.3 35.4299 1.38333 34.8633 1.55C34.3299 1.71667 33.9633 2.05 33.7633 2.55C33.5633 3.01667 33.4633 3.75 33.4633 4.75V15.95C33.4633 16.9833 33.5466 17.7333 33.7133 18.2C33.9133 18.6667 34.2799 18.9833 34.8133 19.15C35.3466 19.3167 36.2299 19.4 37.4633 19.4C37.5633 19.4 37.6133 19.5 37.6133 19.7C37.6133 19.9 37.5633 20 37.4633 20C36.3966 20 35.5633 19.9833 34.9633 19.95L31.4133 19.9L27.9133 19.95C27.2799 19.9833 26.4299 20 25.3633 20C25.2966 20 25.2633 19.9 25.2633 19.7C25.2633 19.5 25.2966 19.4 25.3633 19.4C26.5299 19.4 27.3799 19.3167 27.9133 19.15C28.4799 18.9833 28.8633 18.6667 29.0633 18.2C29.2633 17.7 29.3633 16.95 29.3633 15.95V4.75Z" fill="#826B2F"/>
</svg>
