<svg width="41" height="35" viewBox="0 0 41 35" fill="none" xmlns="http://www.w3.org/2000/svg">
<path d="M10.7959 21.65C8.76257 21.65 6.9459 21.2 5.3459 20.3C3.7459 19.4 2.4959 18.1667 1.5959 16.6C0.695899 15 0.245898 13.2167 0.245898 11.25C0.245898 9.28333 0.695899 7.53333 1.5959 6C2.4959 4.43333 3.7459 3.21667 5.3459 2.35C6.9459 1.48333 8.76257 1.05 10.7959 1.05C12.8292 1.05 14.6292 1.5 16.1959 2.4C17.7626 3.26667 18.9792 4.48333 19.8459 6.05C20.7459 7.61667 21.1959 9.38333 21.1959 11.35C21.1959 13.3167 20.7459 15.0833 19.8459 16.65C18.9792 18.2167 17.7459 19.45 16.1459 20.35C14.5792 21.2167 12.7959 21.65 10.7959 21.65ZM11.2959 20.7C12.9959 20.7 14.2792 19.9333 15.1459 18.4C16.0126 16.8667 16.4459 14.7333 16.4459 12C16.4459 8.66667 15.8626 6.16667 14.6959 4.5C13.5292 2.83333 12.0792 2 10.3459 2C8.6459 2 7.31257 2.8 6.3459 4.4C5.41257 5.96667 4.9459 8.08333 4.9459 10.75C4.9459 13.6833 5.52923 16.0833 6.6959 17.95C7.86257 19.7833 9.3959 20.7 11.2959 20.7ZM33.574 14.45C35.874 14.7833 37.6074 15.6167 38.774 16.95C39.9407 18.25 40.524 19.7833 40.524 21.55C40.524 23.15 39.974 24.7667 38.874 26.4C37.774 28.0667 36.0907 29.6333 33.824 31.1C31.5574 32.5667 28.7574 33.7833 25.424 34.75C25.2907 34.7833 25.174 34.7 25.074 34.5C25.0074 34.3333 25.0407 34.2333 25.174 34.2C28.9407 32.8 31.6407 30.9833 33.274 28.75C34.9074 26.55 35.724 24.35 35.724 22.15C35.724 20.25 35.224 18.7 34.224 17.5C33.2574 16.3 31.8907 15.7 30.124 15.7C29.4574 15.7 28.7407 15.8 27.974 16C27.874 16.0333 27.7907 15.95 27.724 15.75C27.6574 15.55 27.674 15.4333 27.774 15.4C30.174 14.7667 31.9074 13.85 32.974 12.65C34.074 11.4167 34.624 9.73333 34.624 7.6C34.624 5.93333 34.324 4.65 33.724 3.75C33.1574 2.81667 32.3074 2.35 31.174 2.35C29.774 2.35 28.524 2.83333 27.424 3.8C26.324 4.76667 25.424 6.2 24.724 8.1C24.6907 8.13333 24.624 8.15 24.524 8.15C24.224 8.15 24.0907 8.08333 24.124 7.95L25.974 0.65C26.0407 0.583333 26.1074 0.55 26.174 0.55C26.274 0.55 26.374 0.583333 26.474 0.65C26.574 0.683333 26.6074 0.716666 26.574 0.749998C26.5074 1.01667 26.474 1.2 26.474 1.3C26.474 1.86667 26.7574 2.15 27.324 2.15C27.724 2.15 28.274 2.01667 28.974 1.75C29.7407 1.51667 30.3907 1.35 30.924 1.25C31.4907 1.11667 32.124 1.05 32.824 1.05C34.7574 1.05 36.274 1.61667 37.374 2.75C38.474 3.85 39.024 5.18333 39.024 6.75C39.024 8.35 38.5407 9.86667 37.574 11.3C36.6074 12.7 35.274 13.75 33.574 14.45Z" fill="#826B2F"/>
</svg>
