<svg width="96" height="35" viewBox="0 0 96 35" fill="none" xmlns="http://www.w3.org/2000/svg">
<rect x="0.5" y="0.5" width="95" height="34" stroke="url(#paint0_linear)"/>
<path d="M28.642 24.688C28.7287 24.688 28.772 24.74 28.772 24.844C28.772 24.948 28.7287 25 28.642 25C28.2953 25 27.758 24.9827 27.03 24.948C26.2673 24.9133 25.7213 24.896 25.392 24.896C24.9587 24.896 24.43 24.9133 23.806 24.948C23.2167 24.9827 22.7487 25 22.402 25C22.3327 25 22.298 24.948 22.298 24.844C22.298 24.74 22.3327 24.688 22.402 24.688C22.8527 24.688 23.1733 24.6447 23.364 24.558C23.572 24.454 23.676 24.2807 23.676 24.038C23.676 23.7433 23.5027 23.2493 23.156 22.556L21.388 19.046H14.992L13.978 21.308C13.7527 21.8107 13.64 22.2787 13.64 22.712C13.64 23.336 13.8567 23.8213 14.29 24.168C14.7407 24.5147 15.3387 24.688 16.084 24.688C16.1707 24.688 16.214 24.74 16.214 24.844C16.214 24.948 16.1707 25 16.084 25C15.772 25 15.3213 24.9827 14.732 24.948C14.0733 24.9133 13.5013 24.896 13.016 24.896C12.548 24.896 11.9847 24.9133 11.326 24.948C10.7367 24.9827 10.26 25 9.896 25C9.82667 25 9.792 24.948 9.792 24.844C9.792 24.74 9.82667 24.688 9.896 24.688C10.3813 24.688 10.7887 24.5927 11.118 24.402C11.4473 24.194 11.7767 23.8387 12.106 23.336C12.4353 22.816 12.8253 22.0533 13.276 21.048L18.918 8.646C18.9527 8.594 19.0307 8.568 19.152 8.568C19.2907 8.568 19.3687 8.594 19.386 8.646L25.886 21.438C26.4927 22.6687 26.9953 23.518 27.394 23.986C27.7927 24.454 28.2087 24.688 28.642 24.688ZM15.33 18.318H20.998L18.008 12.39L15.33 18.318ZM41.0393 24.688C41.0913 24.688 41.1173 24.74 41.1173 24.844C41.1173 24.948 41.0913 25 41.0393 25H37.9453C37.772 25 37.616 24.9567 37.4773 24.87C37.3387 24.7833 37.1393 24.5667 36.8793 24.22C36.6193 23.8733 36.2553 23.3013 35.7873 22.504C35.3367 21.7587 34.9813 21.2213 34.7213 20.892C34.4787 20.5627 34.2273 20.3373 33.9673 20.216C33.7247 20.0773 33.4127 20.008 33.0313 20.008H32.9793V22.894C32.9793 23.414 33.014 23.804 33.0833 24.064C33.1527 24.3067 33.2827 24.4713 33.4733 24.558C33.6813 24.6447 33.9847 24.688 34.3833 24.688C34.4353 24.688 34.4613 24.74 34.4613 24.844C34.4613 24.948 34.4353 25 34.3833 25C33.898 25 33.5253 24.9913 33.2653 24.974L31.8093 24.948L30.3013 24.974C30.024 24.9913 29.634 25 29.1313 25C29.0793 25 29.0533 24.948 29.0533 24.844C29.0533 24.74 29.0793 24.688 29.1313 24.688C29.5473 24.688 29.8507 24.6447 30.0413 24.558C30.2493 24.4713 30.388 24.3067 30.4573 24.064C30.5267 23.804 30.5613 23.414 30.5613 22.894V17.07C30.5613 16.55 30.5267 16.1687 30.4573 15.926C30.388 15.666 30.258 15.4927 30.0673 15.406C29.8767 15.3193 29.5733 15.276 29.1573 15.276C29.1227 15.276 29.1053 15.224 29.1053 15.12C29.1053 15.016 29.1227 14.964 29.1573 14.964C29.6427 14.964 30.0153 14.9727 30.2753 14.99L31.8093 15.016L33.4733 14.99C33.768 14.9727 34.1753 14.964 34.6953 14.964C34.73 14.964 34.7473 15.016 34.7473 15.12C34.7473 15.224 34.73 15.276 34.6953 15.276C34.1927 15.276 33.82 15.3193 33.5773 15.406C33.352 15.4927 33.196 15.666 33.1093 15.926C33.0227 16.186 32.9793 16.5847 32.9793 17.122V19.566L34.2273 19.514C34.574 19.514 34.964 19.046 35.3973 18.11C36.056 16.7753 36.628 15.874 37.1133 15.406C37.616 14.938 38.1533 14.704 38.7253 14.704C39.228 14.704 39.6007 14.8253 39.8433 15.068C40.1033 15.2933 40.2333 15.5967 40.2333 15.978C40.2333 16.3767 40.1207 16.6973 39.8953 16.94C39.67 17.1827 39.3407 17.304 38.9073 17.304C38.6473 17.304 38.3787 17.2347 38.1013 17.096C37.824 16.9573 37.5727 16.888 37.3473 16.888C37.07 16.888 36.836 16.9833 36.6453 17.174C36.472 17.3473 36.238 17.7287 35.9433 18.318C35.7007 18.8207 35.4407 19.228 35.1633 19.54C35.666 19.5747 36.0733 19.6787 36.3853 19.852C36.6973 20.008 36.9833 20.242 37.2433 20.554C37.5033 20.8487 37.85 21.3253 38.2833 21.984C38.5953 22.504 38.786 22.8073 38.8553 22.894C39.254 23.57 39.5833 24.038 39.8433 24.298C40.1207 24.5407 40.5193 24.6707 41.0393 24.688ZM50.076 25C51.2893 25 52.1993 25.286 52.806 25.858C53.4126 26.4473 53.716 27.3747 53.716 28.64C53.716 28.7267 53.768 28.77 53.872 28.77C53.976 28.77 54.028 28.7267 54.028 28.64C54.028 27.5653 54.08 26.5947 54.184 25.728C54.236 25.3467 54.262 25 54.262 24.688C54.262 24.5493 54.2446 24.4713 54.21 24.454C54.1926 24.4193 54.106 24.402 53.95 24.402C53.534 24.402 53.2306 24.376 53.04 24.324C52.8666 24.272 52.7366 24.142 52.65 23.934C52.5806 23.726 52.546 23.3793 52.546 22.894V17.07C52.546 16.55 52.5806 16.1687 52.65 15.926C52.7193 15.666 52.8493 15.4927 53.04 15.406C53.248 15.3193 53.56 15.276 53.976 15.276C54.028 15.276 54.054 15.224 54.054 15.12C54.054 15.016 54.028 14.964 53.976 14.964C53.4733 14.964 53.0833 14.9727 52.806 14.99L51.298 15.016L50.024 14.99C49.7813 14.9727 49.452 14.964 49.036 14.964C48.984 14.964 48.958 15.016 48.958 15.12C48.958 15.224 48.984 15.276 49.036 15.276C49.3653 15.276 49.5993 15.3193 49.738 15.406C49.894 15.4927 49.998 15.666 50.05 15.926C50.102 16.1687 50.128 16.55 50.128 17.07V22.842C50.128 23.3967 50.1106 23.7607 50.076 23.934C50.0586 24.1073 49.998 24.22 49.894 24.272C49.8073 24.324 49.6166 24.35 49.322 24.35H46.41C46.1326 24.35 45.9506 24.3327 45.864 24.298C45.7773 24.246 45.7166 24.1333 45.682 23.96C45.6646 23.7867 45.656 23.4313 45.656 22.894V17.07C45.656 16.55 45.682 16.1687 45.734 15.926C45.8033 15.666 45.9073 15.4927 46.046 15.406C46.202 15.3193 46.4446 15.276 46.774 15.276C46.826 15.276 46.852 15.224 46.852 15.12C46.852 15.016 46.826 14.964 46.774 14.964C46.358 14.964 46.0286 14.9727 45.786 14.99L44.408 15.016L42.952 14.99C42.692 14.9727 42.3193 14.964 41.834 14.964C41.782 14.964 41.756 15.016 41.756 15.12C41.756 15.224 41.782 15.276 41.834 15.276C42.2326 15.276 42.5273 15.3193 42.718 15.406C42.9086 15.4927 43.0386 15.666 43.108 15.926C43.1773 16.1687 43.212 16.55 43.212 17.07V22.842C43.212 23.362 43.1773 23.752 43.108 24.012C43.0386 24.2547 42.9086 24.428 42.718 24.532C42.5273 24.636 42.2326 24.688 41.834 24.688C41.782 24.688 41.756 24.74 41.756 24.844C41.756 24.948 41.782 25 41.834 25H50.076ZM67.6077 24.688C67.6423 24.688 67.6597 24.74 67.6597 24.844C67.6597 24.948 67.6423 25 67.6077 25C67.105 25 66.715 24.9913 66.4377 24.974L65.0077 24.948L63.4737 24.974C63.1963 24.9913 62.815 25 62.3297 25C62.295 25 62.2777 24.948 62.2777 24.844C62.2777 24.74 62.295 24.688 62.3297 24.688C62.7457 24.688 63.049 24.6447 63.2397 24.558C63.4477 24.4713 63.5863 24.3067 63.6557 24.064C63.725 23.804 63.7597 23.414 63.7597 22.894V17.694L57.4417 25.104C57.3897 25.1733 57.277 25.208 57.1037 25.208C57.017 25.208 56.9303 25.1907 56.8437 25.156C56.757 25.1387 56.7137 25.1213 56.7137 25.104V17.07C56.7137 16.55 56.679 16.1687 56.6097 15.926C56.5403 15.666 56.4103 15.4927 56.2197 15.406C56.029 15.3193 55.7257 15.276 55.3097 15.276C55.275 15.276 55.2577 15.224 55.2577 15.12C55.2577 15.016 55.275 14.964 55.3097 14.964C55.7083 14.964 56.0117 14.9727 56.2197 14.99L57.8837 15.016L59.9897 14.99C60.1457 14.9727 60.3363 14.964 60.5617 14.964C60.6137 14.964 60.6397 15.016 60.6397 15.12C60.6397 15.224 60.6137 15.276 60.5617 15.276C60.1457 15.276 59.8337 15.3193 59.6257 15.406C59.435 15.4927 59.305 15.666 59.2357 15.926C59.1663 16.1687 59.1317 16.55 59.1317 17.07V22.322L65.4757 14.886C65.5277 14.7993 65.6403 14.756 65.8137 14.756C65.9177 14.756 66.0043 14.7733 66.0737 14.808C66.1603 14.8253 66.2037 14.8513 66.2037 14.886V22.894C66.2037 23.414 66.2383 23.804 66.3077 24.064C66.377 24.3067 66.507 24.4713 66.6977 24.558C66.8883 24.6447 67.1917 24.688 67.6077 24.688ZM78.5705 24.688C78.6225 24.688 78.6485 24.74 78.6485 24.844C78.6485 24.948 78.6225 25 78.5705 25C78.1719 25 77.8599 24.9913 77.6345 24.974L76.3345 24.948L74.9045 24.974C74.6792 24.9913 74.3499 25 73.9165 25C73.8819 25 73.8645 24.948 73.8645 24.844C73.8645 24.74 73.8819 24.688 73.9165 24.688C74.2632 24.688 74.5059 24.6447 74.6445 24.558C74.8005 24.4713 74.8959 24.3067 74.9305 24.064C74.9825 23.8213 75.0085 23.4313 75.0085 22.894V20.424C74.5232 20.528 74.0812 20.762 73.6825 21.126C73.2839 21.49 72.8852 22.0793 72.4865 22.894L72.1485 23.648C71.9232 24.1507 71.7412 24.506 71.6025 24.714C71.4639 24.9047 71.2732 25 71.0305 25H67.9885C67.9539 25 67.9365 24.948 67.9365 24.844C67.9365 24.74 67.9539 24.688 67.9885 24.688C68.4739 24.7053 68.8552 24.5407 69.1325 24.194C69.4272 23.83 69.6612 23.466 69.8345 23.102C70.0079 22.738 70.1205 22.4953 70.1725 22.374C70.5019 21.7327 70.9265 21.256 71.4465 20.944C71.9839 20.632 72.6599 20.4327 73.4745 20.346C71.0305 20.1553 69.8085 19.2713 69.8085 17.694C69.8085 16.7927 70.1899 16.0993 70.9525 15.614C71.7152 15.1287 72.6685 14.886 73.8125 14.886C74.2459 14.886 74.6879 14.912 75.1385 14.964C75.6932 14.9987 76.0919 15.016 76.3345 15.016L77.6085 14.99C77.8339 14.9727 78.1459 14.964 78.5445 14.964C78.5965 14.964 78.6225 15.016 78.6225 15.12C78.6225 15.224 78.5965 15.276 78.5445 15.276C78.2325 15.276 77.9985 15.328 77.8425 15.432C77.7039 15.5187 77.5999 15.6833 77.5305 15.926C77.4785 16.1687 77.4525 16.55 77.4525 17.07V22.894C77.4525 23.6393 77.5219 24.1247 77.6605 24.35C77.8165 24.5753 78.1199 24.688 78.5705 24.688ZM72.3305 17.122C72.3305 17.954 72.5125 18.6473 72.8765 19.202C73.2579 19.7567 73.7952 20.034 74.4885 20.034C74.7139 20.034 74.8872 20.0253 75.0085 20.008V17.122C75.0085 16.342 74.9392 15.8307 74.8005 15.588C74.6619 15.328 74.3759 15.198 73.9425 15.198C73.3879 15.198 72.9805 15.3627 72.7205 15.692C72.4605 16.004 72.3305 16.4807 72.3305 17.122ZM80.9786 9.01C80.9439 8.88867 81.1259 8.802 81.5246 8.75C81.9232 8.68067 82.3479 8.646 82.7986 8.646C83.2492 8.646 83.6739 8.68067 84.0726 8.75C84.4886 8.802 84.6792 8.88867 84.6446 9.01C84.2632 10.3273 83.9772 11.766 83.7866 13.326C83.6132 14.886 83.4312 16.862 83.2406 19.254C83.2406 19.4273 83.2232 19.7047 83.1886 20.086C83.1886 20.1207 83.1366 20.1553 83.0326 20.19C82.9459 20.2073 82.8506 20.216 82.7466 20.216C82.6426 20.216 82.5386 20.2073 82.4346 20.19C82.3479 20.1553 82.3046 20.1207 82.3046 20.086C82.1486 17.5207 81.9839 15.3973 81.8106 13.716C81.6372 12.0173 81.3599 10.4487 80.9786 9.01ZM82.6426 25.286C82.1572 25.286 81.7672 25.1473 81.4726 24.87C81.1952 24.5753 81.0566 24.1853 81.0566 23.7C81.0566 23.2493 81.1952 22.8853 81.4726 22.608C81.7672 22.3307 82.1572 22.192 82.6426 22.192C83.1279 22.192 83.5006 22.3307 83.7606 22.608C84.0379 22.868 84.1766 23.232 84.1766 23.7C84.1766 24.2027 84.0379 24.5927 83.7606 24.87C83.5006 25.1473 83.1279 25.286 82.6426 25.286Z" fill="#9D0000"/>
<defs>
<linearGradient id="paint0_linear" x1="34.5" y1="13.5" x2="42.5" y2="27" gradientUnits="userSpaceOnUse">
<stop stop-color="#AF903F"/>
<stop offset="1" stop-color="#AF903F" stop-opacity="0"/>
</linearGradient>
</defs>
</svg>
