<svg width="22" height="22" viewBox="0 0 22 22" fill="none" xmlns="http://www.w3.org/2000/svg">
<path d="M11 0C4.93456 0 0 4.93456 0 11C0 17.0652 4.93456 22 11 22C17.0652 22 22 17.0652 22 11C22 4.93456 17.0657 0 11 0ZM11 20.9268C5.52643 20.9268 1.0732 16.4736 1.0732 11C1.0732 5.52643 5.52643 1.0732 11 1.0732C16.4736 1.0732 20.9268 5.52643 20.9268 11C20.9268 16.4736 16.4736 20.9268 11 20.9268ZM12.2634 3.41921C12.3643 3.52304 12.4193 3.66282 12.4155 3.80743L12.0617 14.9075C12.0541 15.1983 11.8162 15.4304 11.5251 15.4304H10.4747C10.1838 15.4304 9.94558 15.1983 9.93807 14.9075L9.58418 3.80743C9.58043 3.66282 9.63543 3.52277 9.73631 3.41921C9.83719 3.31564 9.9759 3.25715 10.1205 3.25715H11.8792C12.0236 3.25742 12.1625 3.31564 12.2634 3.41921ZM12.393 16.9034V18.9129C12.393 19.2092 12.1526 19.4495 11.8564 19.4495H10.1433C9.84712 19.4495 9.60672 19.2092 9.60672 18.9129V16.9034C9.60672 16.6072 9.84712 16.3668 10.1433 16.3668H11.8564C12.1529 16.3668 12.393 16.6066 12.393 16.9034Z" fill="#CD7A7A"/>
</svg>
