<svg width="32" height="32" viewBox="0 0 32 32" fill="none" xmlns="http://www.w3.org/2000/svg">
<g clip-path="url(#clip0)">
<path d="M6.01037 23.4414C6.01037 23.4414 4.9975 25.1321 4.01246 27.769C3.13538 30.1165 3.44814 32.2904 5.57405 31.9687C7.66324 31.6526 4.77155 29.5054 5.4672 27.769C6.47896 25.2368 7.86247 24.1192 8.01718 24.1415C11.0647 24.6168 17.3311 24.9719 21.4193 20.9314C26.9901 15.4227 23.4451 7.13249 29.2051 3.27009C19.8366 -2.80622 8.88536 0.358268 4.82275 6.4613C0.944908 12.2816 3.55054 18.9223 5.09656 21.8808C5.09656 21.8808 12.5573 10.1066 16.2292 9.0314C11.8628 13.27 6.01037 23.4414 6.01037 23.4414Z" fill="black"/>
</g>
<defs>
<clipPath id="clip0">
<rect width="32" height="32" fill="white" transform="matrix(-1 0 0 1 32 0)"/>
</clipPath>
</defs>
</svg>
