<svg width="266" height="88" viewBox="0 0 266 88" fill="none" xmlns="http://www.w3.org/2000/svg">
<path d="M54.9054 37.2645L46.4787 77.078H42.0313L32.7268 42.8384L23.3638 77.078H18.9164L10.4312 37.2645H15.1127L21.3742 70.9354L30.386 37.2645H34.9505L43.9624 70.9354L50.2239 37.2645H54.9054Z" fill="#826B2F"/>
<path d="M83.6879 64.4514H62.3871C62.6212 67.5986 63.538 70.0253 65.1375 71.7316C66.776 73.4379 68.9802 74.2911 71.7501 74.2911C73.5057 74.2911 75.1052 73.9309 76.5486 73.2104C77.9921 72.4521 79.182 71.4093 80.1183 70.0822L82.5175 72.3004C81.3862 74.0067 79.8647 75.3338 77.9531 76.2818C76.0805 77.1918 73.9738 77.6468 71.6331 77.6468C67.4587 77.6468 64.1817 76.3576 61.8019 73.7792C59.4612 71.1629 58.2908 67.5417 58.2908 62.9158C58.2908 58.2898 59.4417 54.6687 61.7434 52.0524C64.0841 49.3981 67.3027 48.071 71.399 48.071C75.2612 48.071 78.2652 49.3412 80.4109 51.8817C82.5956 54.4222 83.6879 57.9675 83.6879 62.5176V64.4514ZM79.9427 60.9251C79.9427 57.9675 79.1625 55.6356 77.602 53.9293C76.0415 52.1851 73.9348 51.313 71.2819 51.313C68.6291 51.313 66.5224 52.1851 64.9619 53.9293C63.4404 55.6735 62.5822 58.1571 62.3871 61.3801H79.9427V60.9251Z" fill="#826B2F"/>
<path d="M99.0957 77.6468C97.0281 77.6468 95.1359 77.2297 93.4194 76.3955C91.7419 75.5613 90.5325 74.4617 89.7912 73.0967L92.4831 71.2766C93.1853 72.3383 94.1216 73.1536 95.292 73.7223C96.4624 74.2532 97.7888 74.5186 99.2713 74.5186C101.027 74.5186 102.47 74.0257 103.602 73.0398C104.733 72.016 105.299 70.7268 105.299 69.1722C105.299 67.9209 104.831 66.8782 103.894 66.044C102.997 65.1719 101.417 64.3187 99.1542 63.4845C95.9162 62.3091 93.634 61.0957 92.3075 59.8444C91.0201 58.5932 90.3764 57.0385 90.3764 55.1806C90.3764 53.0572 91.2347 51.3509 92.9512 50.0617C94.6678 48.7346 96.95 48.071 99.7979 48.071C101.632 48.071 103.309 48.4691 104.831 49.2654C106.391 50.0617 107.542 51.1423 108.283 52.5074L105.708 54.3274C104.382 52.2419 102.392 51.1992 99.7394 51.1992C98.1789 51.1992 96.8915 51.5594 95.8772 52.2799C94.9019 53.0003 94.4142 53.9293 94.4142 55.0668C94.4142 56.1664 94.9019 57.1144 95.8772 57.9106C96.8525 58.669 98.6666 59.5221 101.319 60.4701C104.206 61.5697 106.274 62.7831 107.522 64.1102C108.771 65.4373 109.395 67.0867 109.395 69.0584C109.395 71.6368 108.459 73.7223 106.586 75.3149C104.714 76.8695 102.217 77.6468 99.0957 77.6468Z" fill="#826B2F"/>
<path d="M125.849 77.6468C123.352 77.6468 121.421 76.8884 120.056 75.3717C118.69 73.8171 118.008 71.6368 118.008 68.8309V51.768H112.741V48.6398H118.008V40.9614L121.811 39.767H122.046V48.6398H130.297V51.768H122.046V68.319C122.046 70.4424 122.416 71.9971 123.157 72.9829C123.899 73.9309 125.069 74.4048 126.669 74.4048C128.229 74.4048 129.536 74.1773 130.589 73.7223L130.94 76.7368C129.653 77.3435 127.956 77.6468 125.849 77.6468Z" fill="#826B2F"/>
<path d="M154.017 37.2645H158.348V73.5517H178.303V77.078H154.017V37.2645Z" fill="#826B2F"/>
<path d="M187.965 43.1227C187.028 43.1227 186.268 42.8573 185.682 42.3265C185.136 41.7956 184.863 41.0941 184.863 40.222C184.863 39.312 185.136 38.5916 185.682 38.0607C186.268 37.5299 187.028 37.2645 187.965 37.2645C188.901 37.2645 189.642 37.5299 190.188 38.0607C190.774 38.5916 191.066 39.312 191.066 40.222C191.066 41.0941 190.774 41.7956 190.188 42.3265C189.642 42.8573 188.901 43.1227 187.965 43.1227ZM185.916 48.6398H190.013V77.078H185.916V48.6398Z" fill="#826B2F"/>
<path d="M199.278 55.6925C199.278 52.3557 199.219 50.0048 199.102 48.6398H202.789C202.945 49.929 203.023 51.7301 203.023 54.043H203.199C204.057 52.223 205.403 50.7821 207.236 49.7204C209.07 48.6208 211.079 48.071 213.264 48.071C216.658 48.071 219.213 49.1516 220.93 51.313C222.646 53.4743 223.505 56.6783 223.505 60.9251V77.078H219.467V60.8682C219.467 57.6452 218.901 55.2564 217.77 53.7018C216.639 52.1092 214.922 51.313 212.62 51.313C210.865 51.313 209.285 51.768 207.88 52.678C206.476 53.5501 205.364 54.7635 204.545 56.3181C203.764 57.8727 203.374 59.6169 203.374 61.5507V77.078H199.278V55.6925Z" fill="#826B2F"/>
<path d="M255.568 64.4514H234.268C234.502 67.5986 235.418 70.0253 237.018 71.7316C238.656 73.4379 240.861 74.2911 243.631 74.2911C245.386 74.2911 246.986 73.9309 248.429 73.2104C249.873 72.4521 251.062 71.4093 251.999 70.0822L254.398 72.3004C253.267 74.0067 251.745 75.3338 249.834 76.2818C247.961 77.1918 245.854 77.6468 243.514 77.6468C239.339 77.6468 236.062 76.3576 233.682 73.7792C231.342 71.1629 230.171 67.5417 230.171 62.9158C230.171 58.2898 231.322 54.6687 233.624 52.0524C235.965 49.3981 239.183 48.071 243.279 48.071C247.142 48.071 250.146 49.3412 252.291 51.8817C254.476 54.4222 255.568 57.9675 255.568 62.5176V64.4514ZM251.823 60.9251C251.823 57.9675 251.043 55.6356 249.482 53.9293C247.922 52.1851 245.815 51.313 243.162 51.313C240.51 51.313 238.403 52.1851 236.842 53.9293C235.321 55.6735 234.463 58.1571 234.268 61.3801H251.823V60.9251Z" fill="#826B2F"/>
<path d="M187.315 33.6252C187.315 33.6252 186.396 35.1171 185.502 37.4439C184.705 39.5153 184.989 41.4335 186.919 41.1496C188.816 40.8707 186.191 38.9761 186.822 37.4439C187.741 35.2094 188.997 34.2233 189.137 34.243C191.904 34.6624 197.593 34.9757 201.305 31.4104C206.362 26.5496 203.144 19.2344 208.373 15.8262C199.868 10.4645 189.925 13.2568 186.237 18.6421C182.717 23.7779 185.082 29.6376 186.486 32.2482C186.486 32.2482 193.259 21.8587 196.593 20.91C192.629 24.6501 187.315 33.6252 187.315 33.6252Z" fill="#826B2F"/>
</svg>
