<svg width="102" height="34" viewBox="0 0 102 34" fill="none" xmlns="http://www.w3.org/2000/svg">
<path d="M21.054 14.3977L17.8227 29.7803H16.1173L12.5495 16.5513L8.95913 29.7803H7.25373L4 14.3977H5.79516L8.19619 27.4069L11.6519 14.3977H13.4022L16.8578 27.4069L19.2589 14.3977H21.054Z" fill="white"/>
<path d="M32.0909 24.9018H23.923C24.0127 26.1177 24.3643 27.0553 24.9776 27.7146C25.6059 28.3738 26.4511 28.7035 27.5133 28.7035C28.1865 28.7035 28.7998 28.5643 29.3533 28.2859C29.9068 27.9929 30.3631 27.5901 30.7221 27.0773L31.6421 27.9343C31.2083 28.5936 30.6249 29.1063 29.8919 29.4726C29.1738 29.8242 28.366 30 27.4684 30C25.8677 30 24.6111 29.5019 23.6986 28.5057C22.801 27.4948 22.3522 26.0958 22.3522 24.3085C22.3522 22.5212 22.7935 21.1221 23.6761 20.1112C24.5737 19.0857 25.8079 18.573 27.3786 18.573C28.8596 18.573 30.0115 19.0638 30.8343 20.0453C31.6721 21.0269 32.0909 22.3966 32.0909 24.1546V24.9018ZM30.6548 23.5393C30.6548 22.3966 30.3556 21.4957 29.7572 20.8364C29.1588 20.1625 28.351 19.8256 27.3338 19.8256C26.3165 19.8256 25.5087 20.1625 24.9103 20.8364C24.3269 21.5103 23.9978 22.4699 23.923 23.7151H30.6548V23.5393Z" fill="white"/>
<path d="M37.9992 30C37.2063 30 36.4808 29.8389 35.8226 29.5165C35.1793 29.1942 34.7155 28.7694 34.4313 28.242L35.4635 27.5388C35.7328 27.949 36.0918 28.264 36.5406 28.4837C36.9894 28.6888 37.498 28.7914 38.0665 28.7914C38.7397 28.7914 39.2932 28.6009 39.727 28.22C40.1609 27.8245 40.3778 27.3264 40.3778 26.7257C40.3778 26.2423 40.1983 25.8394 39.8392 25.5171C39.4952 25.1801 38.8893 24.8505 38.0216 24.5282C36.78 24.0741 35.9048 23.6053 35.3962 23.1218C34.9025 22.6384 34.6557 22.0377 34.6557 21.3199C34.6557 20.4995 34.9848 19.8402 35.643 19.3421C36.3013 18.8294 37.1764 18.573 38.2685 18.573C38.9716 18.573 39.6148 18.7268 40.1983 19.0345C40.7967 19.3421 41.238 19.7596 41.5222 20.287L40.5349 20.9902C40.0262 20.1845 39.2633 19.7816 38.246 19.7816C37.6476 19.7816 37.154 19.9208 36.765 20.1991C36.391 20.4775 36.204 20.8364 36.204 21.2759C36.204 21.7008 36.391 22.067 36.765 22.3747C37.139 22.6677 37.8346 22.9973 38.8519 23.3635C39.9589 23.7884 40.7518 24.2572 41.2305 24.7699C41.7092 25.2827 41.9485 25.92 41.9485 26.6818C41.9485 27.678 41.5895 28.4837 40.8714 29.099C40.1534 29.6997 39.196 30 37.9992 30Z" fill="white"/>
<path d="M48.2581 30C47.3007 30 46.5602 29.707 46.0366 29.121C45.513 28.5203 45.2512 27.678 45.2512 26.5939V20.0014H43.2316V18.7927H45.2512V15.8261L46.7098 15.3646H46.7995V18.7927H49.9635V20.0014H46.7995V26.3961C46.7995 27.2165 46.9416 27.8171 47.2259 28.198C47.5101 28.5643 47.9589 28.7474 48.5722 28.7474C49.1706 28.7474 49.6718 28.6595 50.0757 28.4837L50.2103 29.6484C49.7166 29.8828 49.0659 30 48.2581 30Z" fill="white"/>
<path d="M59.0594 14.3977H60.7199V28.4178H68.3718V29.7803H59.0594V14.3977Z" fill="white"/>
<path d="M72.0767 16.6612C71.7177 16.6612 71.426 16.5586 71.2016 16.3535C70.9922 16.1484 70.8875 15.8774 70.8875 15.5404C70.8875 15.1888 70.9922 14.9105 71.2016 14.7054C71.426 14.5003 71.7177 14.3977 72.0767 14.3977C72.4358 14.3977 72.72 14.5003 72.9294 14.7054C73.1538 14.9105 73.266 15.1888 73.266 15.5404C73.266 15.8774 73.1538 16.1484 72.9294 16.3535C72.72 16.5586 72.4358 16.6612 72.0767 16.6612ZM71.2914 18.7927H72.8621V29.7803H71.2914V18.7927Z" fill="white"/>
<path d="M76.4149 21.5176C76.4149 20.2284 76.3925 19.3201 76.3476 18.7927H77.7613C77.8211 19.2908 77.8511 19.9867 77.8511 20.8804H77.9184C78.2475 20.1772 78.7636 19.6205 79.4667 19.2103C80.1698 18.7854 80.9402 18.573 81.778 18.573C83.0795 18.573 84.0593 18.9905 84.7176 19.8256C85.3758 20.6606 85.7049 21.8985 85.7049 23.5393V29.7803H84.1566V23.5174C84.1566 22.2721 83.9397 21.3492 83.5058 20.7485C83.072 20.1332 82.4138 19.8256 81.5311 19.8256C80.858 19.8256 80.2521 20.0014 79.7135 20.353C79.175 20.6899 78.7486 21.1587 78.4345 21.7594C78.1353 22.36 77.9857 23.0339 77.9857 23.7811V29.7803H76.4149V21.5176Z" fill="white"/>
<path d="M98 24.9018H89.832C89.9218 26.1177 90.2733 27.0553 90.8867 27.7146C91.515 28.3738 92.3602 28.7035 93.4223 28.7035C94.0955 28.7035 94.7089 28.5643 95.2624 28.2859C95.8159 27.9929 96.2722 27.5901 96.6312 27.0773L97.5512 27.9343C97.1174 28.5936 96.534 29.1063 95.8009 29.4726C95.0829 29.8242 94.275 30 93.3775 30C91.7768 30 90.5202 29.5019 89.6076 28.5057C88.71 27.4948 88.2612 26.0958 88.2612 24.3085C88.2612 22.5212 88.7026 21.1221 89.5852 20.1112C90.4828 19.0857 91.7169 18.573 93.2877 18.573C94.7687 18.573 95.9206 19.0638 96.7434 20.0453C97.5811 21.0269 98 22.3966 98 24.1546V24.9018ZM96.5639 23.5393C96.5639 22.3966 96.2647 21.4957 95.6663 20.8364C95.0679 20.1625 94.2601 19.8256 93.2428 19.8256C92.2256 19.8256 91.4177 20.1625 90.8194 20.8364C90.2359 21.5103 89.9068 22.4699 89.832 23.7151H96.5639V23.5393Z" fill="white"/>
<path d="M71.8278 12.9917C71.8278 12.9917 71.4752 13.5681 71.1322 14.4671C70.8269 15.2674 70.9358 16.0085 71.6759 15.8988C72.4032 15.7911 71.3965 15.059 71.6387 14.4671C71.9909 13.6038 72.4726 13.2228 72.5264 13.2303C73.5873 13.3924 75.7689 13.5134 77.1921 12.1359C79.1315 10.2579 77.8973 7.43156 79.9026 6.11477C76.6411 4.04321 72.8286 5.12206 71.4143 7.20273C70.0643 9.18702 70.9714 11.451 71.5097 12.4596C71.5097 12.4596 74.107 8.44552 75.3853 8.07894C73.8652 9.52399 71.8278 12.9917 71.8278 12.9917Z" fill="white"/>
</svg>
